<?xml version="1.0" standalone="no"?>
<!DOCTYPE svg PUBLIC "-//W3C//DTD SVG 20010904//EN"
 "http://www.w3.org/TR/2001/REC-SVG-20010904/DTD/svg10.dtd">
<svg version="1.0" xmlns="http://www.w3.org/2000/svg"
 width="256.000000pt" height="256.000000pt" viewBox="0 0 256.000000 256.000000"
 preserveAspectRatio="xMidYMid meet">
<metadata>
Created by potrace 1.14, written by Peter Selinger 2001-2017
</metadata>
<g transform="translate(0.000000,256.000000) scale(0.100000,-0.100000)"
fill="#000000" stroke="none">
<path d="M1178 1895 c-2 -1 -39 -6 -83 -9 -99 -8 -107 -10 -122 -19 -7 -5
-104 -5 -215 -2 -247 8 -262 8 -304 -10 -24 -10 -32 -19 -28 -29 3 -9 10 -13
15 -10 5 3 17 1 26 -5 15 -8 16 -10 3 -15 -30 -11 -77 -16 -199 -22 -157 -8
-155 -8 -159 -27 -3 -13 4 -17 25 -18 113 -3 202 -12 225 -23 14 -8 38 -11 53
-8 21 3 26 1 23 -9 -3 -8 -18 -15 -34 -16 -85 -6 -194 -37 -194 -54 0 -5 29
-9 64 -9 65 0 91 -11 58 -25 -9 -4 -51 -15 -92 -24 -64 -14 -77 -20 -88 -43
-7 -15 -10 -38 -6 -53 7 -27 10 -29 137 -80 73 -30 85 -45 35 -46 -18 0 -41
-2 -51 -4 -52 -10 -104 -108 -71 -136 8 -6 14 -9 14 -6 0 3 17 1 38 -3 20 -5
62 -11 92 -15 124 -14 112 -32 -39 -60 -44 -8 -46 -22 -7 -58 24 -23 34 -40
30 -51 -7 -18 11 -22 22 -5 7 11 40 8 126 -13 47 -11 64 -27 33 -29 -8 -1 -18
-2 -22 -3 -43 -11 -114 -20 -188 -25 -84 -6 -90 -8 -104 -33 -14 -24 -14 -28
3 -46 15 -17 21 -18 42 -7 13 7 41 11 62 9 38 -3 51 -14 114 -96 21 -28 34
-36 60 -35 31 0 107 -6 238 -19 30 -3 102 -7 160 -9 132 -5 200 -11 272 -22
31 -5 84 -7 117 -5 61 4 74 15 49 40 -9 9 -7 13 7 18 13 5 25 -1 42 -20 21
-24 26 -26 57 -17 28 7 42 5 70 -10 44 -24 46 -24 46 1 0 11 -4 20 -10 20 -5
0 -10 7 -10 15 0 18 31 20 47 4 9 -9 26 -8 70 4 38 10 92 15 156 14 55 -1 101
1 104 6 6 10 274 6 295 -4 9 -5 19 -5 22 0 11 18 -48 32 -184 46 -82 8 -133
16 -149 25 -19 10 101 21 135 11 16 -4 45 -7 64 -5 19 1 52 3 73 3 53 1 46 19
-10 26 -27 4 -66 11 -88 17 -22 6 -44 11 -50 12 -41 8 -151 55 -130 56 6 1 26
3 45 6 26 4 81 -10 213 -54 162 -55 177 -58 177 -40 0 10 4 17 9 13 5 -3 12
-1 15 4 3 4 19 11 36 14 39 8 38 23 -2 40 -31 13 -283 83 -329 92 -60 12 -109
33 -109 48 0 11 117 2 134 -11 6 -5 30 -14 54 -22 32 -10 45 -11 54 -2 18 18
56 14 81 -8 25 -24 68 -37 117 -36 50 1 39 20 -14 26 -63 7 -45 32 27 39 23 3
1 18 -40 29 -27 7 -55 14 -63 16 -8 3 -18 5 -22 5 -5 1 -8 6 -8 12 0 6 14 8
37 4 35 -5 123 21 123 36 0 4 -9 18 -20 32 l-20 25 46 11 c49 12 56 34 13 39
-14 2 -31 12 -38 24 -11 18 -11 22 3 30 23 13 48 65 35 73 -5 4 -18 0 -27 -8
-25 -23 -57 -4 -39 23 9 16 9 24 -2 42 -12 19 -11 23 10 38 l22 18 -29 5 c-16
3 -54 6 -84 7 -49 0 -81 12 -69 24 13 14 147 21 202 11 45 -8 49 6 6 22 -17 7
-33 21 -36 32 -5 18 -30 39 -113 89 -33 21 -34 22 -13 28 35 10 17 24 -29 24
-33 0 -38 2 -29 14 7 8 21 12 34 9 15 -4 19 -2 12 5 -5 5 -35 13 -65 16 -30 4
-70 11 -88 17 -42 14 -64 5 -60 -23 5 -35 -38 -41 -219 -29 -7 1 -13 8 -13 16
0 9 -9 15 -22 15 -191 1 -397 4 -415 8 -35 7 -27 22 11 22 19 0 37 4 40 9 12
19 -81 22 -288 6 -80 -6 -98 -5 -94 6 5 16 45 25 143 33 138 11 189 21 179 37
-5 8 -157 12 -166 4z"/>
</g>
</svg>
